<?xml version="1.0" encoding="UTF-8" standalone="no"?>
<svg
   xmlns:dc="http://purl.org/dc/elements/1.1/"
   xmlns:cc="http://creativecommons.org/ns#"
   xmlns:rdf="http://www.w3.org/1999/02/22-rdf-syntax-ns#"
   xmlns:svg="http://www.w3.org/2000/svg"
   xmlns="http://www.w3.org/2000/svg"
   xmlns:sodipodi="http://sodipodi.sourceforge.net/DTD/sodipodi-0.dtd"
   xmlns:inkscape="http://www.inkscape.org/namespaces/inkscape"
   version="1.1"
   id="svg2"
   xml:space="preserve"
   width="1056"
   height="325"
   viewBox="0 0 1056 325"
   sodipodi:docname="Reidel_logo.svg"
   inkscape:version="1.0.1 (3bc2e813f5, 2020-09-07)"><metadata
     id="metadata8"><rdf:RDF><cc:Work
         rdf:about=""><dc:format>image/svg+xml</dc:format><dc:type
           rdf:resource="http://purl.org/dc/dcmitype/StillImage" /><dc:title></dc:title></cc:Work></rdf:RDF></metadata><defs
     id="defs6"><clipPath
       clipPathUnits="userSpaceOnUse"
       id="clipPath20"><path
         d="M 0,396 H 792 V 0 H 0 Z"
         id="path18" /></clipPath></defs><sodipodi:namedview
     pagecolor="#051214"
     bordercolor="#666666"
     borderopacity="1"
     objecttolerance="10"
     gridtolerance="10"
     guidetolerance="10"
     inkscape:pageopacity="0.22352941"
     inkscape:pageshadow="2"
     inkscape:window-width="2256"
     inkscape:window-height="1410"
     id="namedview4"
     showgrid="false"
     inkscape:pagecheckerboard="true"
     inkscape:zoom="1.3920455"
     inkscape:cx="559.98884"
     inkscape:cy="331.28707"
     inkscape:window-x="-11"
     inkscape:window-y="-11"
     inkscape:window-maximized="1"
     inkscape:current-layer="g10" /><g
     id="g10"
     inkscape:groupmode="layer"
     inkscape:label="Reidel_logo"
     transform="matrix(1.3333333,0,0,-1.3333333,0,528)"><path
       d="M 682.561,171.86 H 108.182 v 2.071 h 574.379 z"
       style="fill:#ffffff;fill-opacity:1;fill-rule:nonzero;stroke:none"
       id="path12" /><g
       id="g22"
       transform="translate(355.4849,316.5264)"
       style="fill:#ffffff"><path
         d="m 0,0 c -0.634,2.144 -1.583,4.059 -2.847,5.745 -1.266,1.684 -2.848,3.064 -4.746,4.136 -1.899,1.072 -4.114,1.609 -6.644,1.609 -1.933,0 -3.797,-0.276 -5.596,-0.827 v -30.242 c 2.664,-0.368 5.429,-0.552 8.293,-0.552 1.132,0 2.431,0.061 3.897,0.184 1.464,0.122 2.664,0.52 3.597,1.196 0.932,0.673 1.714,1.484 2.348,2.436 0.632,0.948 1.149,1.976 1.548,3.079 0.4,1.102 0.682,2.236 0.849,3.4 0.166,1.164 0.251,2.299 0.251,3.401 C 0.95,-4.29 0.633,-2.146 0,0 m 30.823,-54.141 c -1.665,-0.368 -3.364,-0.551 -5.095,-0.551 -2.798,0 -5.313,0.475 -7.544,1.424 -2.232,0.95 -4.296,2.206 -6.194,3.769 -1.899,1.563 -3.664,3.324 -5.296,5.285 -1.632,1.961 -3.214,3.953 -4.745,5.975 -1.533,1.961 -3.048,3.875 -4.547,5.745 -1.498,1.869 -3.047,3.447 -4.645,4.734 -1.199,0.98 -2.682,1.593 -4.447,1.839 -1.765,0.243 -3.347,0.367 -4.746,0.367 h -1.798 c -0.599,0 -1.166,-0.031 -1.698,-0.092 v -17.097 c 0,-0.307 0.049,-0.827 0.15,-1.562 0.099,-0.736 0.249,-1.517 0.449,-2.345 0.2,-0.827 0.4,-1.578 0.6,-2.251 0.199,-0.676 0.4,-1.074 0.599,-1.196 0.333,-0.123 0.782,-0.215 1.349,-0.275 0.565,-0.062 1.014,-0.124 1.349,-0.184 0.732,-0.062 1.481,-0.153 2.248,-0.276 0.765,-0.123 1.449,-0.429 2.048,-0.919 0.4,-0.308 0.499,-0.613 0.3,-0.919 -0.2,-0.306 -0.567,-0.46 -1.099,-0.46 h -12.189 c -4.064,0 -8.128,0.092 -12.19,0.276 -0.667,0.06 -1.016,0.321 -1.049,0.781 -0.034,0.46 0.283,0.75 0.949,0.874 1.464,0.244 2.598,0.519 3.397,0.827 0.799,0.306 1.382,0.735 1.749,1.287 0.365,0.551 0.582,1.301 0.649,2.252 0.065,0.949 0.1,2.16 0.1,3.63 V 7.721 c 0,1.041 -0.134,1.869 -0.4,2.482 -0.266,0.612 -0.599,1.057 -0.999,1.333 -0.399,0.276 -0.834,0.46 -1.299,0.551 -0.467,0.092 -0.933,0.168 -1.399,0.23 -0.933,0.06 -1.733,0.184 -2.398,0.368 -0.666,0.183 -1.099,0.582 -1.298,1.195 -0.2,0.306 -0.2,0.566 0,0.781 0.199,0.214 0.532,0.322 0.999,0.322 h 1.798 6.594 c 1.132,-0.062 2.198,-0.078 3.198,-0.046 0.999,0.03 2.031,0.046 3.097,0.046 0.599,0 1.182,0.014 1.748,0.046 0.566,0.03 1.149,0.046 1.749,0.046 h 5.295 c 2.798,0 5.546,-0.17 8.243,-0.506 2.698,-0.338 5.196,-1.011 7.493,-2.022 2.298,-1.011 4.28,-2.451 5.945,-4.32 1.665,-1.871 2.898,-4.336 3.697,-7.4 0.133,-0.307 0.215,-0.705 0.25,-1.195 0.033,-0.491 0.05,-0.951 0.05,-1.379 0,-1.9 -0.334,-3.784 -0.999,-5.653 -0.667,-1.87 -1.533,-3.692 -2.598,-5.469 -1.066,-1.778 -2.282,-3.446 -3.646,-5.01 -1.367,-1.562 -2.783,-2.987 -4.247,-4.274 1.065,-1.043 2.181,-2.298 3.347,-3.768 1.164,-1.472 2.348,-2.942 3.547,-4.412 1.998,-2.452 4.079,-4.98 6.245,-7.584 2.163,-2.606 4.428,-4.934 6.794,-6.986 2.363,-2.054 4.778,-3.677 7.243,-4.872 2.464,-1.195 4.962,-1.609 7.494,-1.241 l 0.599,-1.563 c -1.533,-0.673 -3.131,-1.194 -4.796,-1.562"
         style="fill:#ffffff;fill-opacity:1;fill-rule:nonzero;stroke:none"
         id="path24" /></g><g
       id="g26"
       transform="translate(442.5088,271.4399)"
       style="fill:#ffffff"><path
         d="m 0,0 c -0.235,-1.441 -0.45,-2.896 -0.65,-4.367 l -0.299,-2.206 c -0.135,-0.429 -0.468,-0.643 -1,-0.643 l -1.799,-0.46 h -12.688 c -1.533,0 -3.065,-0.015 -4.597,-0.046 -1.532,-0.031 -3.064,-0.046 -4.596,-0.046 -2.797,0 -5.561,0.03 -8.292,0.092 -2.731,0.061 -5.295,0.214 -7.693,0.46 -0.667,0 -0.984,0.26 -0.949,0.781 0.032,0.52 0.382,0.782 1.049,0.782 1.264,0.06 2.281,0.305 3.047,0.735 0.765,0.428 1.348,1.011 1.748,1.746 0.401,0.736 0.665,1.577 0.799,2.528 0.134,0.95 0.2,1.945 0.2,2.988 v 51.198 c 0,0.797 -0.099,1.44 -0.299,1.932 -0.201,0.489 -0.484,0.872 -0.85,1.149 -0.366,0.275 -0.766,0.473 -1.198,0.597 -0.434,0.122 -0.883,0.244 -1.35,0.367 -0.732,0.122 -1.433,0.307 -2.097,0.552 -0.667,0.244 -1.334,0.582 -2,1.011 -0.533,0.244 -0.698,0.552 -0.499,0.919 0.2,0.368 0.566,0.552 1.099,0.552 h 38.367 c 0.4,0 0.999,0.213 1.799,0.643 0.465,0.122 0.882,0.106 1.249,-0.046 0.364,-0.154 0.515,-0.384 0.449,-0.689 -0.199,-1.717 -0.483,-3.433 -0.849,-5.148 -0.368,-1.716 -0.749,-3.37 -1.149,-4.964 -0.067,-0.245 -0.135,-0.459 -0.2,-0.643 -0.066,-0.184 -0.134,-0.429 -0.2,-0.735 -0.134,-0.492 -0.533,-0.735 -1.198,-0.735 -0.667,0 -1.034,0.243 -1.1,0.735 -0.267,2.818 -1.282,4.672 -3.047,5.561 -1.766,0.888 -4.014,1.333 -6.744,1.333 h -1.699 c -0.6,0 -1.2,-0.032 -1.797,-0.092 -0.667,-0.062 -1.367,-0.092 -2.099,-0.092 h -2.098 c -0.534,0 -0.884,-0.032 -1.049,-0.092 -0.168,-0.061 -0.518,-0.032 -1.05,0.092 V 31.206 h 14.687 c 0.332,0 0.832,0.107 1.499,0.322 0.665,0.214 1.332,0.474 1.998,0.782 0.733,0.305 1.381,0.565 1.95,0.781 0.563,0.214 1.013,0.351 1.347,0.413 0.4,0.061 0.766,0 1.1,-0.184 0.332,-0.183 0.465,-0.429 0.399,-0.735 -0.133,-0.919 -0.267,-1.854 -0.399,-2.803 -0.135,-0.951 -0.268,-1.885 -0.4,-2.804 -0.4,-2.268 -0.7,-4.596 -0.9,-6.986 0,-0.368 -0.233,-0.613 -0.698,-0.736 -0.468,-0.123 -0.9,-0.031 -1.3,0.277 -0.399,0.367 -0.716,0.795 -0.948,1.286 -0.235,0.49 -0.417,0.92 -0.55,1.287 -0.2,0.552 -0.384,1.103 -0.549,1.655 -0.168,0.551 -0.418,0.949 -0.75,1.195 -0.399,0.367 -1.233,0.658 -2.498,0.873 -1.266,0.214 -2.647,0.368 -4.146,0.46 -1.499,0.091 -2.983,0.137 -4.446,0.137 h -3.597 -1.699 V 1.608 c 1.2,-1.9 2.981,-3.263 5.345,-4.09 2.364,-0.828 4.646,-1.241 6.845,-1.241 2.863,0 5.345,0.703 7.443,2.114 2.099,1.409 3.512,3.493 4.246,6.251 0.066,0.244 0.233,0.397 0.499,0.459 0.266,0.061 0.533,0.076 0.8,0.046 C 0.214,5.115 0.465,5.023 0.698,4.871 0.931,4.718 1.015,4.518 0.948,4.274 0.548,2.864 0.232,1.438 0,0"
         style="fill:#ffffff;fill-opacity:1;fill-rule:nonzero;stroke:none"
         id="path28" /></g><g
       id="g30"
       transform="translate(482.2715,264.27)"
       style="fill:#ffffff"><path
         d="m 0,0 c -0.167,-0.276 -0.517,-0.414 -1.049,-0.414 -1.732,0.06 -3.298,0.122 -4.696,0.184 -1.399,0.06 -2.965,0.106 -4.696,0.138 -1.733,0.03 -3.497,0.046 -5.295,0.046 -2.932,0 -5.579,-0.046 -7.944,-0.138 -2.365,-0.092 -3.781,-0.046 -4.246,0.138 -0.266,0.122 -0.398,0.306 -0.398,0.551 0,0.245 0.064,0.49 0.199,0.735 0.132,0.245 0.333,0.444 0.6,0.598 0.265,0.152 0.532,0.168 0.798,0.046 0.333,-0.124 0.95,-0.078 1.848,0.137 0.9,0.215 1.45,0.323 1.65,0.323 0.732,0 1.331,0.305 1.798,0.919 0.465,0.612 0.85,1.347 1.15,2.206 0.3,0.858 0.499,1.731 0.597,2.619 0.101,0.888 0.151,1.639 0.151,2.253 v 50.188 c 0,1.838 -0.634,3.109 -1.898,3.814 -1.266,0.704 -2.765,1.15 -4.497,1.333 -0.599,0.061 -0.899,0.337 -0.899,0.828 0,0.49 0.3,0.765 0.899,0.827 1.932,0.122 3.848,0.169 5.745,0.138 1.9,-0.031 3.813,-0.046 5.745,-0.046 1.865,0 3.73,0.03 5.596,0.092 1.863,0.06 3.763,0.03 5.695,-0.092 0.666,-0.062 1.032,-0.322 1.099,-0.781 0.066,-0.46 -0.234,-0.751 -0.899,-0.873 -1.798,-0.308 -3.264,-0.768 -4.396,-1.379 -1.135,-0.614 -1.698,-1.87 -1.698,-3.769 V 9.973 c 0,-0.307 0.064,-0.813 0.199,-1.517 0.132,-0.705 0.3,-1.456 0.499,-2.251 0.199,-0.798 0.416,-1.549 0.65,-2.252 0.232,-0.705 0.449,-1.181 0.65,-1.426 0.331,-0.123 0.765,-0.245 1.298,-0.367 0.532,-0.123 0.966,-0.184 1.3,-0.184 0.731,0 1.464,-0.046 2.197,-0.138 C -1.516,1.746 -0.85,1.424 -0.25,0.873 0.083,0.565 0.165,0.275 0,0"
         style="fill:#ffffff;fill-opacity:1;fill-rule:nonzero;stroke:none"
         id="path32" /></g><g
       id="g34"
       transform="translate(556.3076,308.8052)"
       style="fill:#ffffff"><path
         d="m 0,0 c -1.766,3.982 -4.23,7.368 -7.394,10.157 -3.164,2.788 -6.96,4.947 -11.389,6.48 -4.431,1.531 -9.277,2.299 -14.538,2.299 -1.733,0 -3.413,-0.093 -5.046,-0.277 -1.632,-0.183 -3.246,-0.521 -4.846,-1.011 v -48.625 c 0,-0.492 0.017,-1.135 0.051,-1.931 0.033,-0.797 0.116,-1.578 0.249,-2.343 0.134,-0.767 0.316,-1.487 0.55,-2.161 0.232,-0.674 0.516,-1.134 0.85,-1.379 1.531,-0.98 3.411,-1.639 5.645,-1.976 2.23,-0.337 4.246,-0.505 6.045,-0.505 4.795,0 9.191,0.582 13.187,1.746 3.997,1.163 7.409,2.896 10.242,5.193 2.831,2.298 5.045,5.194 6.643,8.687 1.6,3.493 2.398,7.567 2.398,12.226 C 2.647,-8.457 1.765,-3.984 0,0 m 9.992,-25.921 c -2.033,-4.475 -4.913,-8.182 -8.642,-11.123 -3.733,-2.941 -8.211,-5.133 -13.44,-6.572 -5.229,-1.441 -11.039,-2.16 -17.434,-2.16 -2.332,0 -4.664,0.061 -6.995,0.183 -2.332,0.124 -4.629,0.276 -6.893,0.46 -2.665,0.184 -5.345,0.352 -8.043,0.506 -2.698,0.152 -5.38,0.168 -8.043,0.046 -0.667,0 -1.05,0.244 -1.148,0.735 -0.101,0.49 0.181,0.796 0.848,0.919 1.332,0.244 2.399,0.582 3.197,1.011 0.8,0.428 1.415,0.966 1.848,1.609 0.434,0.643 0.716,1.439 0.85,2.39 0.132,0.949 0.2,2.098 0.2,3.447 v 50.831 c 0,0.92 -0.151,1.655 -0.45,2.206 -0.3,0.552 -0.684,0.98 -1.149,1.287 -0.467,0.307 -0.966,0.52 -1.499,0.644 -0.533,0.122 -1.033,0.214 -1.498,0.275 -0.8,0.123 -1.499,0.261 -2.098,0.414 -0.6,0.152 -0.999,0.474 -1.2,0.966 -0.199,0.305 -0.183,0.581 0.051,0.826 0.233,0.245 0.549,0.369 0.949,0.369 1.2,0 2.398,-0.032 3.597,-0.092 1.199,-0.062 2.363,-0.124 3.497,-0.185 1.464,-0.123 2.88,-0.215 4.246,-0.275 1.364,-0.062 2.779,-0.092 4.247,-0.092 1.797,0 3.562,0.046 5.294,0.138 1.732,0.092 3.53,0.198 5.396,0.322 1.731,0.122 3.53,0.198 5.395,0.229 1.864,0.031 3.63,0.046 5.295,0.046 2.331,0 4.812,-0.337 7.443,-1.011 2.631,-0.675 5.262,-1.608 7.894,-2.803 2.631,-1.195 5.179,-2.605 7.645,-4.229 2.462,-1.624 4.644,-3.417 6.544,-5.377 1.897,-1.962 3.479,-4.044 4.745,-6.25 1.264,-2.207 1.999,-4.444 2.198,-6.711 0.133,-1.165 0.2,-2.39 0.2,-3.676 v -3.402 c 0,-6.128 -1.018,-11.429 -3.047,-15.901"
         style="fill:#ffffff;fill-opacity:1;fill-rule:nonzero;stroke:none"
         id="path36" /></g><g
       id="g38"
       transform="translate(623.5479,271.4399)"
       style="fill:#ffffff"><path
         d="m 0,0 c -0.235,-1.441 -0.45,-2.896 -0.65,-4.367 l -0.299,-2.206 c -0.135,-0.429 -0.467,-0.643 -1,-0.643 l -1.798,-0.46 h -12.689 c -1.533,0 -3.065,-0.015 -4.596,-0.046 -1.533,-0.031 -3.065,-0.046 -4.596,-0.046 -2.798,0 -5.562,0.03 -8.292,0.092 -2.732,0.061 -5.296,0.214 -7.694,0.46 -0.667,0 -0.984,0.26 -0.949,0.781 0.032,0.52 0.382,0.782 1.049,0.782 1.264,0.06 2.281,0.305 3.047,0.735 0.765,0.428 1.348,1.011 1.748,1.746 0.401,0.736 0.666,1.577 0.799,2.528 0.134,0.95 0.201,1.945 0.201,2.988 v 51.198 c 0,0.797 -0.1,1.44 -0.3,1.932 -0.201,0.489 -0.484,0.872 -0.849,1.149 -0.367,0.275 -0.767,0.473 -1.199,0.597 -0.434,0.122 -0.883,0.244 -1.35,0.367 -0.732,0.122 -1.433,0.307 -2.097,0.552 -0.667,0.244 -1.334,0.582 -1.999,1.011 -0.534,0.244 -0.699,0.552 -0.5,0.919 0.2,0.368 0.566,0.552 1.1,0.552 h 38.367 c 0.399,0 0.998,0.213 1.798,0.643 0.465,0.122 0.882,0.106 1.249,-0.046 0.364,-0.154 0.515,-0.384 0.449,-0.689 -0.199,-1.717 -0.483,-3.433 -0.849,-5.148 -0.368,-1.716 -0.749,-3.37 -1.149,-4.964 -0.067,-0.245 -0.134,-0.459 -0.2,-0.643 -0.066,-0.184 -0.134,-0.429 -0.199,-0.735 -0.135,-0.492 -0.534,-0.735 -1.199,-0.735 -0.667,0 -1.034,0.243 -1.099,0.735 -0.267,2.818 -1.283,4.672 -3.048,5.561 -1.766,0.888 -4.014,1.333 -6.743,1.333 h -1.7 c -0.599,0 -1.199,-0.032 -1.797,-0.092 -0.667,-0.062 -1.367,-0.092 -2.099,-0.092 h -2.098 c -0.534,0 -0.884,-0.032 -1.049,-0.092 -0.168,-0.061 -0.517,-0.032 -1.049,0.092 V 31.206 h 14.687 c 0.331,0 0.832,0.107 1.499,0.322 0.664,0.214 1.331,0.474 1.998,0.782 0.732,0.305 1.381,0.565 1.949,0.781 0.564,0.214 1.013,0.351 1.347,0.413 0.401,0.061 0.766,0 1.1,-0.184 0.332,-0.183 0.465,-0.429 0.399,-0.735 -0.133,-0.919 -0.266,-1.854 -0.399,-2.803 -0.134,-0.951 -0.268,-1.885 -0.399,-2.804 -0.401,-2.268 -0.701,-4.596 -0.9,-6.986 0,-0.368 -0.234,-0.613 -0.699,-0.736 -0.467,-0.123 -0.9,-0.031 -1.299,0.277 -0.4,0.367 -0.717,0.795 -0.949,1.286 -0.235,0.49 -0.417,0.92 -0.55,1.287 -0.199,0.552 -0.384,1.103 -0.549,1.655 -0.168,0.551 -0.418,0.949 -0.75,1.195 -0.399,0.367 -1.232,0.658 -2.498,0.873 -1.266,0.214 -2.647,0.368 -4.146,0.46 -1.498,0.091 -2.982,0.137 -4.446,0.137 h -3.597 -1.699 V 1.608 c 1.2,-1.9 2.981,-3.263 5.346,-4.09 2.363,-0.828 4.645,-1.241 6.844,-1.241 2.863,0 5.345,0.703 7.443,2.114 2.099,1.409 3.513,3.493 4.246,6.251 0.066,0.244 0.233,0.397 0.5,0.459 0.266,0.061 0.533,0.076 0.799,0.046 C 0.215,5.115 0.465,5.023 0.698,4.871 0.931,4.718 1.015,4.518 0.948,4.274 0.549,2.864 0.232,1.438 0,0"
         style="fill:#ffffff;fill-opacity:1;fill-rule:nonzero;stroke:none"
         id="path40" /></g><g
       id="g42"
       transform="translate(684.2939,275.8975)"
       style="fill:#ffffff"><path
         d="m 0,0 c -0.034,-0.246 -0.05,-0.521 -0.05,-0.827 -0.266,-2.268 -0.468,-4.306 -0.599,-6.112 -0.135,-1.81 -0.267,-3.509 -0.401,-5.102 -1.998,0.184 -3.98,0.29 -5.944,0.322 -1.965,0.03 -3.913,0.046 -5.845,0.046 h -5.295 c -1.799,0 -3.597,-0.032 -5.396,-0.093 -1.865,-0.062 -3.697,-0.062 -5.494,0 -1.799,0.061 -3.632,0.093 -5.496,0.093 -1.933,0 -3.796,-0.093 -5.595,-0.277 -1.799,-0.183 -3.598,-0.215 -5.395,-0.091 -0.667,0.06 -0.984,0.352 -0.95,0.873 0.033,0.52 0.383,0.781 1.049,0.781 1.199,0.061 2.165,0.322 2.897,0.781 0.734,0.46 1.3,1.058 1.699,1.793 0.4,0.735 0.683,1.563 0.849,2.482 0.166,0.919 0.251,1.898 0.251,2.941 v 50.74 c 0,1.041 -0.135,1.869 -0.4,2.482 -0.267,0.612 -0.6,1.057 -0.998,1.333 -0.401,0.275 -0.851,0.46 -1.35,0.551 -0.5,0.092 -0.984,0.168 -1.449,0.23 -0.866,0.06 -1.633,0.184 -2.298,0.368 -0.667,0.183 -1.133,0.582 -1.398,1.195 -0.201,0.305 -0.184,0.581 0.049,0.827 0.233,0.245 0.583,0.368 1.049,0.368 h 13.689 c 1.798,0 3.612,0.046 5.445,0.138 1.831,0.091 3.579,-0.108 5.245,-0.598 0.533,-0.123 0.749,-0.445 0.65,-0.965 -0.1,-0.522 -0.45,-0.751 -1.049,-0.69 l -1.399,0.092 c -1.533,0.123 -2.798,-0.245 -3.797,-1.102 -1,-0.86 -1.499,-2.055 -1.499,-3.585 V 2.298 c 0,-3.249 1.132,-5.791 3.397,-7.629 2.264,-1.839 5.062,-2.757 8.392,-2.757 3.264,0 6.261,0.857 8.994,2.573 2.73,1.715 4.828,3.982 6.294,6.802 0.132,0.184 0.349,0.306 0.649,0.368 0.3,0.06 0.565,0.075 0.799,0.046 C -0.467,1.669 -0.25,1.577 -0.05,1.425 0.149,1.271 0.216,1.072 0.149,0.827 0.082,0.52 0.033,0.244 0,0"
         style="fill:#ffffff;fill-opacity:1;fill-rule:nonzero;stroke:none"
         id="path44" /></g><g
       id="g46"
       transform="translate(339.9302,208.6406)"
       style="fill:#ffffff"><path
         d="m 0,0 c -0.018,-0.125 -0.026,-0.266 -0.026,-0.422 -0.137,-1.16 -0.239,-2.202 -0.307,-3.124 -0.068,-0.925 -0.136,-1.794 -0.204,-2.607 -1.021,0.093 -2.034,0.147 -3.038,0.164 -1.005,0.015 -2.001,0.023 -2.987,0.023 h -2.707 c -0.919,0 -1.838,-0.016 -2.757,-0.047 -0.954,-0.032 -1.89,-0.032 -2.809,0 -0.92,0.031 -1.856,0.047 -2.809,0.047 -0.987,0 -1.94,-0.047 -2.86,-0.141 -0.919,-0.094 -1.838,-0.11 -2.757,-0.046 -0.341,0.03 -0.503,0.179 -0.486,0.445 0.018,0.266 0.196,0.399 0.537,0.399 0.612,0.031 1.106,0.164 1.481,0.401 0.374,0.235 0.664,0.539 0.868,0.915 0.204,0.376 0.348,0.8 0.434,1.269 0.084,0.47 0.127,0.97 0.127,1.502 v 25.935 c 0,0.532 -0.068,0.954 -0.204,1.268 -0.136,0.313 -0.306,0.54 -0.51,0.682 -0.204,0.141 -0.435,0.234 -0.69,0.281 -0.255,0.047 -0.502,0.086 -0.74,0.118 -0.443,0.031 -0.835,0.094 -1.175,0.188 -0.34,0.094 -0.579,0.297 -0.714,0.61 -0.103,0.157 -0.095,0.298 0.025,0.424 0.119,0.124 0.298,0.187 0.536,0.187 h 6.997 c 0.918,0 1.846,0.024 2.782,0.071 0.936,0.047 1.83,-0.055 2.681,-0.306 0.272,-0.063 0.383,-0.227 0.333,-0.493 -0.052,-0.266 -0.231,-0.384 -0.537,-0.352 l -0.714,0.046 c -0.784,0.063 -1.431,-0.125 -1.941,-0.563 -0.511,-0.439 -0.767,-1.05 -0.767,-1.832 V 1.176 c 0,-1.661 0.579,-2.96 1.737,-3.9 1.157,-0.941 2.587,-1.41 4.29,-1.41 1.667,0 3.199,0.439 4.596,1.316 1.395,0.877 2.467,2.036 3.217,3.477 0.068,0.093 0.179,0.155 0.332,0.187 0.153,0.031 0.288,0.039 0.408,0.024 0.119,-0.016 0.23,-0.064 0.332,-0.142 C 0.076,0.65 0.109,0.548 0.076,0.424 0.042,0.267 0.016,0.125 0,0"
         style="fill:#ffffff;fill-opacity:1;fill-rule:nonzero;stroke:none"
         id="path48" /></g><g
       id="g50"
       transform="translate(377.2334,229.5479)"
       style="fill:#ffffff"><path
         d="m 0,0 c -0.681,-1.973 -1.336,-3.86 -1.966,-5.661 -0.631,-1.801 -1.32,-3.689 -2.068,-5.662 h 8.221 z m 17.107,-27.179 c -0.987,0.017 -1.991,0.024 -3.013,0.024 -0.749,0 -1.651,-0.015 -2.706,-0.047 -1.055,-0.031 -1.941,-0.016 -2.655,0.047 -0.274,0.03 -0.46,0.11 -0.562,0.235 -0.102,0.125 -0.051,0.265 0.153,0.422 l 1.787,0.847 c -0.817,1.973 -1.643,3.946 -2.477,5.92 -0.834,1.973 -1.642,3.945 -2.426,5.918 h -10.06 c -0.272,-0.563 -0.621,-1.386 -1.046,-2.465 -0.426,-1.081 -0.843,-2.193 -1.251,-3.337 -0.409,-1.143 -0.759,-2.223 -1.047,-3.242 -0.29,-1.017 -0.434,-1.73 -0.434,-2.137 0,-0.532 0.263,-0.885 0.792,-1.058 0.527,-0.172 1.046,-0.289 1.557,-0.351 0.34,-0.064 0.502,-0.212 0.485,-0.447 -0.017,-0.234 -0.196,-0.352 -0.536,-0.352 l -10.622,0.047 c -0.137,0.125 -0.222,0.218 -0.255,0.282 -0.069,0.125 -0.035,0.25 0.102,0.375 0.067,0.095 0.179,0.134 0.332,0.118 0.153,-0.016 0.246,-0.023 0.28,-0.023 0.443,0 0.876,0.116 1.303,0.351 0.425,0.237 0.834,0.532 1.225,0.894 0.391,0.36 0.732,0.752 1.022,1.174 0.288,0.422 0.518,0.823 0.689,1.198 0.885,2.068 1.728,4.188 2.528,6.366 0.8,2.176 1.608,4.299 2.425,6.366 1.192,3.038 2.401,6.06 3.626,9.068 1.226,3.007 2.468,6.028 3.728,9.067 C 0.119,8.206 0.238,8.316 0.409,8.41 0.579,8.503 0.731,8.472 0.868,8.316 1.447,7.72 1.974,6.859 2.451,5.732 2.928,4.604 3.353,3.554 3.728,2.583 3.864,2.396 3.958,2.208 4.009,2.021 4.06,1.832 4.119,1.675 4.187,1.551 4.596,0.548 5.047,-0.47 5.541,-1.503 c 0.493,-1.034 0.961,-2.099 1.404,-3.195 0.613,-1.504 1.251,-3.07 1.915,-4.698 0.664,-1.629 1.353,-3.273 2.068,-4.933 0.715,-1.66 1.438,-3.282 2.171,-4.863 0.732,-1.582 1.455,-3.077 2.17,-4.486 0.477,-0.909 1.149,-1.551 2.017,-1.926 0.868,-0.377 1.795,-0.596 2.782,-0.659 v -0.845 c -0.987,-0.062 -1.973,-0.086 -2.961,-0.071"
         style="fill:#ffffff;fill-opacity:1;fill-rule:nonzero;stroke:none"
         id="path52" /></g><g
       id="g54"
       transform="translate(457.1523,236.1724)"
       style="fill:#ffffff"><path
         d="M 0,0 C -0.204,0.031 -0.408,0.039 -0.612,0.023 -0.816,0.007 -1.005,0 -1.175,0 -1.55,0 -1.847,-0.079 -2.067,-0.235 -2.29,-0.393 -2.502,-0.627 -2.706,-0.94 -3.148,-1.629 -3.617,-2.639 -4.11,-3.97 c -0.494,-1.331 -0.989,-2.795 -1.482,-4.393 -0.493,-1.596 -0.97,-3.218 -1.429,-4.862 -0.46,-1.644 -0.861,-3.124 -1.201,-4.44 -0.136,-0.47 -0.247,-0.916 -0.331,-1.338 -0.086,-0.424 -0.179,-0.808 -0.281,-1.152 -0.682,-2.286 -1.388,-4.597 -2.119,-6.929 -0.734,-2.335 -1.627,-4.66 -2.682,-6.978 -0.068,-0.188 -0.238,-0.282 -0.51,-0.282 -0.274,0 -0.46,0.079 -0.562,0.235 -1.531,2.663 -2.929,5.56 -4.187,8.692 -1.26,3.131 -2.435,6.216 -3.524,9.255 -0.579,1.535 -1.081,2.929 -1.506,4.182 -0.426,1.252 -0.945,2.63 -1.557,4.134 -0.853,-1.879 -1.704,-3.828 -2.555,-5.849 -0.851,-2.02 -1.667,-3.987 -2.451,-5.896 -0.409,-1.034 -0.877,-2.178 -1.404,-3.43 -0.528,-1.253 -1.064,-2.538 -1.608,-3.852 -0.545,-1.316 -1.091,-2.6 -1.635,-3.852 -0.545,-1.254 -1.055,-2.382 -1.531,-3.384 -0.103,-0.187 -0.281,-0.274 -0.536,-0.258 -0.256,0.016 -0.452,0.102 -0.588,0.258 -1.091,3.195 -2.034,6.116 -2.835,8.763 -0.8,2.646 -1.473,5.268 -2.017,7.868 -0.544,2.538 -1.106,5.067 -1.685,7.588 -0.578,2.521 -1.31,4.878 -2.195,7.072 0,0.03 -0.035,0.132 -0.103,0.304 -0.068,0.172 -0.152,0.368 -0.255,0.587 -0.102,0.219 -0.204,0.43 -0.307,0.635 -0.101,0.203 -0.169,0.336 -0.204,0.399 l 0.103,-0.047 c -0.273,0.251 -0.562,0.43 -0.869,0.541 -0.306,0.109 -0.613,0.195 -0.919,0.258 -0.714,0.094 -1.345,0.313 -1.89,0.658 -0.272,0.125 -0.356,0.273 -0.255,0.446 0.103,0.172 0.307,0.259 0.613,0.259 2.076,0 4.153,-0.017 6.23,-0.048 2.076,-0.031 4.153,-0.078 6.231,-0.141 0.339,-0.031 0.527,-0.157 0.561,-0.376 0.033,-0.219 -0.103,-0.36 -0.408,-0.422 -0.273,-0.094 -0.486,-0.157 -0.639,-0.188 -0.153,-0.031 -0.314,-0.064 -0.484,-0.094 -0.274,-0.063 -0.536,-0.134 -0.792,-0.211 -0.255,-0.079 -0.486,-0.196 -0.69,-0.353 0.17,-1.41 0.409,-2.999 0.715,-4.768 0.307,-1.77 0.621,-3.572 0.945,-5.403 0.323,-1.833 0.655,-3.617 0.996,-5.356 0.339,-1.738 0.655,-3.289 0.945,-4.651 0.288,-1.363 0.603,-2.874 0.944,-4.535 0.748,1.786 1.421,3.4 2.017,4.841 0.597,1.44 1.277,3.091 2.043,4.955 0.766,1.864 1.557,3.759 2.375,5.685 0.816,1.926 1.616,3.822 2.4,5.685 0.782,1.863 1.482,3.515 2.094,4.956 0.102,0.189 0.271,0.283 0.51,0.283 0.238,0 0.426,-0.079 0.561,-0.235 1.464,-2.757 2.825,-5.779 4.086,-9.068 1.26,-3.288 2.485,-6.578 3.677,-9.866 0.272,-0.751 0.511,-1.433 0.715,-2.044 0.204,-0.61 0.408,-1.198 0.612,-1.762 0.204,-0.563 0.417,-1.127 0.639,-1.691 0.221,-0.563 0.468,-1.191 0.741,-1.879 0.578,1.722 1.199,3.656 1.863,5.802 0.663,2.145 1.278,4.338 1.839,6.577 0.562,2.239 1.029,4.408 1.404,6.508 0.374,2.097 0.563,3.962 0.563,5.59 0,0.407 -0.231,0.665 -0.69,0.775 -0.46,0.11 -0.928,0.195 -1.406,0.259 -0.136,0.031 -0.272,0.047 -0.408,0.047 -0.102,0 -0.187,0.015 -0.255,0.047 -0.306,0.062 -0.452,0.212 -0.434,0.446 0.016,0.235 0.179,0.368 0.485,0.4 0.988,0.094 1.975,0.094 2.963,0 0.986,-0.095 1.973,-0.141 2.962,-0.141 0.849,0 1.692,0.062 2.526,0.187 0.835,0.125 1.644,0.063 2.427,-0.187 z"
         style="fill:#ffffff;fill-opacity:1;fill-rule:nonzero;stroke:none"
         id="path56" /></g><g
       id="g58"
       transform="translate(528.1592,236.5947)"
       style="fill:#ffffff"><path
         d="m 0,0 c -0.018,-0.281 -0.043,-0.58 -0.077,-0.892 -0.034,-0.439 -0.069,-0.901 -0.102,-1.386 -0.034,-0.487 -0.093,-0.949 -0.178,-1.387 -0.085,-0.439 -0.213,-0.837 -0.383,-1.197 -0.171,-0.36 -0.392,-0.634 -0.664,-0.823 -0.239,-0.093 -0.451,-0.109 -0.638,-0.046 -0.187,0.062 -0.281,0.188 -0.281,0.376 0,1.346 -0.392,2.286 -1.175,2.818 -0.784,0.533 -1.838,0.799 -3.165,0.799 -0.58,0 -1.158,-0.032 -1.736,-0.094 -0.58,-0.063 -1.176,-0.126 -1.789,-0.188 -0.544,-0.063 -1.004,-0.126 -1.378,-0.188 -0.375,-0.063 -0.834,-0.094 -1.378,-0.094 v -12.027 h 8.783 c 0.271,0 0.612,0.133 1.02,0.399 0.409,0.266 0.698,0.493 0.869,0.681 0.205,0.157 0.425,0.205 0.664,0.142 0.238,-0.064 0.357,-0.204 0.357,-0.424 -0.068,-1.159 -0.187,-2.301 -0.357,-3.429 -0.17,-1.127 -0.393,-2.239 -0.664,-3.336 -0.035,-0.125 -0.111,-0.211 -0.23,-0.258 -0.119,-0.048 -0.247,-0.063 -0.383,-0.048 -0.136,0.016 -0.263,0.055 -0.384,0.119 -0.119,0.062 -0.177,0.155 -0.177,0.282 0.033,1.345 -0.316,2.262 -1.047,2.747 -0.733,0.486 -1.762,0.729 -3.09,0.729 -0.307,0 -0.612,-0.008 -0.919,-0.023 -0.308,-0.017 -0.631,-0.04 -0.971,-0.071 -0.375,-0.032 -0.723,-0.056 -1.047,-0.071 -0.324,-0.015 -0.672,-0.023 -1.046,-0.023 h -0.715 c -0.171,0 -0.392,0.015 -0.663,0.047 v -12.028 c 0,-1.503 0.245,-2.606 0.74,-3.311 0.493,-0.705 1.591,-1.027 3.294,-0.963 l 0.1,-0.799 c -2.041,-0.095 -4.101,-0.14 -6.177,-0.14 -2.146,0 -4.256,0.045 -6.333,0.14 -0.34,0 -0.52,0.118 -0.536,0.353 -0.018,0.235 0.144,0.382 0.485,0.446 0.748,0.125 1.327,0.265 1.736,0.422 0.408,0.157 0.715,0.384 0.919,0.682 0.204,0.297 0.323,0.689 0.358,1.174 0.033,0.486 0.05,1.104 0.05,1.856 v 26.027 c 0,0.47 -0.05,0.838 -0.153,1.105 -0.101,0.265 -0.238,0.469 -0.408,0.61 -0.17,0.142 -0.366,0.242 -0.587,0.306 -0.222,0.062 -0.468,0.125 -0.741,0.188 -0.306,0.062 -0.63,0.148 -0.97,0.258 -0.34,0.109 -0.681,0.259 -1.02,0.446 -0.274,0.125 -0.368,0.289 -0.282,0.494 0.084,0.204 0.263,0.305 0.536,0.305 2.213,-0.063 4.4,-0.101 6.562,-0.118 2.162,-0.016 4.349,-0.023 6.561,-0.023 h 5.364 c 0.883,0 1.787,0.172 2.706,0.517 L 0.076,0.705 C 0.042,0.517 0.018,0.282 0,0"
         style="fill:#ffffff;fill-opacity:1;fill-rule:nonzero;stroke:none"
         id="path60" /></g><g
       id="g62"
       transform="translate(560.5859,202.6982)"
       style="fill:#ffffff"><path
         d="m 0,0 c -0.086,-0.142 -0.264,-0.211 -0.537,-0.211 -0.885,0.03 -1.684,0.061 -2.399,0.093 -0.715,0.031 -1.515,0.055 -2.401,0.071 -0.885,0.015 -1.786,0.024 -2.706,0.024 -1.499,0 -2.852,-0.024 -4.06,-0.071 -1.209,-0.048 -1.933,-0.024 -2.17,0.071 -0.137,0.062 -0.205,0.155 -0.205,0.282 0,0.123 0.034,0.25 0.102,0.375 0.068,0.125 0.17,0.226 0.307,0.305 0.135,0.079 0.273,0.087 0.409,0.024 0.17,-0.064 0.484,-0.04 0.945,0.071 0.459,0.109 0.739,0.164 0.843,0.164 0.374,0 0.68,0.156 0.918,0.47 0.238,0.312 0.434,0.688 0.588,1.127 0.153,0.439 0.255,0.885 0.306,1.339 0.051,0.453 0.077,0.838 0.077,1.151 v 25.652 c 0,0.94 -0.325,1.589 -0.971,1.949 -0.647,0.361 -1.413,0.588 -2.298,0.682 -0.306,0.031 -0.459,0.172 -0.459,0.423 0,0.25 0.153,0.391 0.459,0.423 0.987,0.062 1.966,0.086 2.937,0.07 0.969,-0.016 1.948,-0.023 2.935,-0.023 0.954,0 1.906,0.015 2.86,0.046 0.954,0.031 1.924,0.016 2.912,-0.046 0.339,-0.032 0.527,-0.165 0.561,-0.399 0.033,-0.235 -0.12,-0.385 -0.46,-0.447 -0.919,-0.157 -1.668,-0.392 -2.247,-0.705 -0.578,-0.313 -0.867,-0.955 -0.867,-1.926 V 5.098 c 0,-0.158 0.033,-0.416 0.101,-0.776 0.069,-0.36 0.154,-0.745 0.256,-1.151 0.102,-0.407 0.212,-0.792 0.332,-1.151 0.119,-0.36 0.23,-0.603 0.331,-0.728 0.17,-0.063 0.392,-0.126 0.665,-0.188 0.271,-0.063 0.494,-0.094 0.664,-0.094 0.374,0 0.748,-0.023 1.123,-0.071 0.374,-0.046 0.715,-0.21 1.022,-0.493 C 0.043,0.289 0.084,0.141 0,0"
         style="fill:#ffffff;fill-opacity:1;fill-rule:nonzero;stroke:none"
         id="path64" /></g><g
       id="g66"
       transform="translate(599.0381,229.4077)"
       style="fill:#ffffff"><path
         d="m 0,0 c -0.323,1.095 -0.809,2.073 -1.455,2.936 -0.647,0.86 -1.455,1.565 -2.425,2.114 -0.971,0.548 -2.103,0.822 -3.396,0.822 -0.989,0 -1.941,-0.141 -2.861,-0.423 v -15.457 c 1.363,-0.188 2.776,-0.281 4.24,-0.281 0.578,0 1.242,0.031 1.991,0.093 0.748,0.063 1.362,0.266 1.839,0.612 0.476,0.343 0.876,0.758 1.2,1.245 0.323,0.485 0.587,1.008 0.791,1.573 0.205,0.564 0.348,1.143 0.433,1.738 0.086,0.595 0.128,1.174 0.128,1.738 C 0.485,-2.193 0.323,-1.098 0,0 m 15.755,-27.672 c -0.851,-0.189 -1.72,-0.283 -2.605,-0.283 -1.429,0 -2.714,0.244 -3.856,0.729 -1.14,0.485 -2.194,1.127 -3.165,1.926 -0.97,0.799 -1.873,1.698 -2.707,2.701 -0.835,1.002 -1.643,2.021 -2.426,3.054 -0.783,1.002 -1.558,1.981 -2.323,2.936 -0.767,0.956 -1.557,1.762 -2.375,2.421 -0.612,0.5 -1.37,0.813 -2.272,0.939 -0.903,0.124 -1.712,0.187 -2.425,0.187 h -0.919 c -0.307,0 -0.597,-0.016 -0.87,-0.047 v -8.738 c 0,-0.157 0.027,-0.423 0.078,-0.799 0.05,-0.375 0.127,-0.775 0.23,-1.198 0.101,-0.422 0.204,-0.807 0.306,-1.151 0.102,-0.345 0.204,-0.548 0.306,-0.611 0.17,-0.062 0.4,-0.11 0.69,-0.14 0.289,-0.032 0.518,-0.064 0.688,-0.095 0.374,-0.032 0.758,-0.077 1.15,-0.14 0.39,-0.064 0.74,-0.22 1.047,-0.47 0.204,-0.157 0.255,-0.314 0.153,-0.469 -0.103,-0.158 -0.29,-0.235 -0.562,-0.235 h -6.23 c -2.077,0 -4.154,0.046 -6.23,0.14 -0.341,0.031 -0.519,0.164 -0.536,0.399 -0.017,0.235 0.144,0.384 0.486,0.447 0.748,0.124 1.327,0.266 1.735,0.423 0.409,0.156 0.706,0.375 0.894,0.657 0.186,0.282 0.297,0.666 0.332,1.151 0.034,0.486 0.051,1.105 0.051,1.856 V 3.946 c 0,0.532 -0.069,0.954 -0.205,1.268 -0.135,0.313 -0.305,0.54 -0.509,0.682 -0.205,0.141 -0.427,0.234 -0.665,0.281 -0.239,0.047 -0.477,0.086 -0.714,0.118 -0.478,0.031 -0.887,0.094 -1.227,0.187 -0.341,0.095 -0.561,0.298 -0.663,0.611 -0.103,0.157 -0.103,0.289 0,0.4 0.102,0.109 0.271,0.164 0.51,0.164 h 0.92 3.37 c 0.578,-0.032 1.124,-0.04 1.634,-0.023 0.51,0.015 1.038,0.023 1.584,0.023 0.305,0 0.604,0.008 0.893,0.024 0.289,0.015 0.587,0.023 0.893,0.023 h 2.708 c 1.428,0 2.833,-0.087 4.212,-0.258 1.38,-0.173 2.655,-0.517 3.83,-1.033 C 2.146,5.896 3.158,5.159 4.01,4.204 4.86,3.248 5.49,1.988 5.899,0.422 5.966,0.265 6.009,0.061 6.026,-0.189 6.043,-0.439 6.053,-0.674 6.053,-0.894 6.053,-1.865 5.881,-2.828 5.541,-3.783 5.2,-4.739 4.758,-5.67 4.214,-6.579 3.668,-7.487 3.048,-8.339 2.35,-9.139 1.651,-9.938 0.928,-10.666 0.18,-11.323 c 0.544,-0.533 1.114,-1.175 1.71,-1.926 0.595,-0.752 1.2,-1.504 1.812,-2.255 1.023,-1.254 2.086,-2.546 3.194,-3.876 1.105,-1.333 2.262,-2.522 3.471,-3.572 1.209,-1.049 2.444,-1.879 3.702,-2.488 1.26,-0.612 2.536,-0.823 3.83,-0.636 l 0.307,-0.799 c -0.783,-0.343 -1.601,-0.61 -2.451,-0.797"
         style="fill:#ffffff;fill-opacity:1;fill-rule:nonzero;stroke:none"
         id="path68" /></g><g
       id="g70"
       transform="translate(683.374,202.4399)"
       style="fill:#ffffff"><path
         d="m 0,0 c -1.77,0 -3.516,-0.017 -5.233,-0.047 -1.72,-0.031 -3.449,0 -5.184,0.094 -0.204,0 -0.366,0.055 -0.485,0.164 -0.119,0.11 -0.146,0.242 -0.077,0.399 0.135,0.407 0.212,0.806 0.23,1.198 0.017,0.392 0.026,0.791 0.026,1.199 0,2.254 -0.121,4.628 -0.357,7.117 -0.239,2.49 -0.512,4.863 -0.818,7.118 -0.102,0.689 -0.188,1.299 -0.255,1.832 -0.069,0.532 -0.137,1.057 -0.204,1.573 -0.069,0.518 -0.137,1.041 -0.205,1.575 -0.068,0.532 -0.136,1.142 -0.204,1.832 -1.532,-2.724 -3.013,-5.466 -4.443,-8.221 -1.43,-2.758 -2.86,-5.529 -4.289,-8.316 -0.614,-1.191 -1.227,-2.389 -1.839,-3.594 -0.612,-1.206 -1.243,-2.42 -1.89,-3.641 -0.101,-0.157 -0.254,-0.235 -0.459,-0.235 -0.204,0 -0.391,0.061 -0.561,0.188 -2.111,2.631 -3.925,5.356 -5.44,8.174 -1.514,2.82 -2.987,5.685 -4.417,8.598 -0.375,0.72 -0.688,1.354 -0.945,1.902 -0.255,0.548 -0.503,1.073 -0.739,1.574 -0.239,0.501 -0.495,1.018 -0.767,1.551 -0.272,0.532 -0.612,1.143 -1.021,1.832 -0.069,-0.877 -0.162,-1.754 -0.281,-2.631 -0.12,-0.877 -0.247,-1.738 -0.383,-2.583 -0.341,-2.162 -0.647,-4.362 -0.919,-6.601 -0.273,-2.24 -0.408,-4.44 -0.408,-6.601 V 4.087 c 0,-0.532 0.007,-0.94 0.024,-1.221 0.018,-0.283 0.068,-0.502 0.153,-0.658 0.085,-0.157 0.213,-0.282 0.384,-0.376 0.17,-0.094 0.425,-0.205 0.766,-0.329 h -0.051 c 0.271,-0.094 0.569,-0.204 0.894,-0.329 0.323,-0.125 0.706,-0.282 1.148,-0.469 0.272,-0.095 0.384,-0.244 0.333,-0.447 -0.052,-0.204 -0.248,-0.305 -0.588,-0.305 -1.736,0 -3.481,-0.015 -5.234,-0.047 -1.753,-0.031 -3.498,0 -5.234,0.094 -0.273,0.031 -0.434,0.132 -0.485,0.306 -0.052,0.171 0.007,0.319 0.178,0.446 0,-0.032 0.179,-0.017 0.536,0.047 0.357,0.061 0.621,0.109 0.792,0.14 0.374,0.063 0.706,0.134 0.996,0.212 0.289,0.078 0.536,0.321 0.74,0.728 0.103,0.218 0.246,0.823 0.434,1.809 0.186,0.987 0.384,2.232 0.588,3.734 0.204,1.504 0.424,3.188 0.663,5.052 0.239,1.862 0.467,3.766 0.689,5.707 0.222,1.943 0.443,3.861 0.665,5.756 0.221,1.894 0.416,3.641 0.586,5.237 0.17,1.409 0.316,2.639 0.435,3.689 0.119,1.049 0.213,1.809 0.281,2.279 0.034,0.188 0.153,0.313 0.357,0.376 0.204,0.062 0.409,0.015 0.613,-0.142 0.34,-0.281 0.784,-0.837 1.328,-1.667 0.544,-0.831 1.157,-1.825 1.839,-2.984 0.68,-1.159 1.412,-2.459 2.196,-3.899 0.782,-1.441 1.582,-2.93 2.399,-4.464 0.818,-1.534 1.634,-3.07 2.452,-4.604 0.817,-1.534 1.583,-2.99 2.297,-4.369 0.851,-1.628 1.515,-2.921 1.993,-3.875 0.475,-0.956 0.901,-1.747 1.276,-2.372 0.884,1.659 1.736,3.287 2.553,4.885 0.817,1.597 1.634,3.226 2.451,4.887 0.682,1.409 1.379,2.801 2.094,4.181 0.715,1.377 1.43,2.786 2.144,4.227 l 1.023,2.068 c 0.679,1.315 1.378,2.646 2.093,3.993 0.715,1.346 1.532,2.662 2.452,3.947 0.169,0.156 0.381,0.218 0.638,0.188 0.255,-0.032 0.399,-0.158 0.433,-0.376 0.272,-2.067 0.537,-4.143 0.792,-6.225 0.255,-2.084 0.502,-4.158 0.74,-6.225 0.034,-0.345 0.076,-0.808 0.129,-1.386 0.051,-0.58 0.109,-1.214 0.178,-1.904 0.068,-0.908 0.153,-1.902 0.255,-2.982 0.102,-1.081 0.221,-2.177 0.357,-3.289 0.136,-1.112 0.272,-2.208 0.408,-3.288 0.136,-1.081 0.29,-2.084 0.461,-3.007 0.17,-0.924 0.348,-1.732 0.535,-2.419 0.187,-0.69 0.384,-1.191 0.588,-1.504 0.408,-0.627 0.86,-1.027 1.353,-1.198 0.493,-0.173 1.012,-0.306 1.558,-0.4 0.307,-0.063 0.638,-0.134 0.996,-0.211 0.358,-0.079 0.722,-0.196 1.097,-0.352 z"
         style="fill:#ffffff;fill-opacity:1;fill-rule:nonzero;stroke:none"
         id="path72" /></g><g
       id="g200"
       transform="translate(192.4707,288.5894)"
       style="fill:#ffffff"><path
         d="m 0,0 8.619,27.133 c 0.403,-0.05 0.812,-0.079 1.229,-0.079 5.48,0 9.923,4.443 9.923,9.924 0,5.48 -4.443,9.923 -9.923,9.923 -5.481,0 -9.924,-4.443 -9.924,-9.923 0,-4.031 2.405,-7.499 5.857,-9.052 L -2.806,0.892 c -0.205,-0.644 0.155,-1.338 0.798,-1.542 l 0.466,-0.148 C -0.898,-1.003 -0.204,-0.644 0,0"
         style="fill:#ffffff;fill-opacity:1;fill-rule:nonzero;stroke:none"
         id="path202" /></g><g
       id="g204"
       transform="translate(265.5254,292.9326)"
       style="fill:#ffffff"><path
         d="m 0,0 c -5.48,0 -9.923,-4.443 -9.923,-9.923 0,-0.16 0.004,-0.319 0.011,-0.477 l -57.414,-3.747 c -0.674,-0.044 -1.189,-0.631 -1.145,-1.305 l 0.032,-0.488 c 0.043,-0.674 0.631,-1.189 1.305,-1.145 l 57.805,3.772 c 1.385,-3.811 5.039,-6.534 9.329,-6.534 5.48,0 9.923,4.443 9.923,9.924 C 9.923,-4.443 5.48,0 0,0"
         style="fill:#ffffff;fill-opacity:1;fill-rule:nonzero;stroke:none"
         id="path206" /></g><g
       id="g208"
       transform="translate(233.7959,233.5029)"
       style="fill:#ffffff"><path
         d="m 0,0 c -1.637,0 -3.18,-0.398 -4.541,-1.101 l -35.517,36.47 c -0.471,0.484 -1.252,0.494 -1.736,0.023 l -0.351,-0.342 c -0.483,-0.471 -0.494,-1.252 -0.022,-1.736 L -6.953,-2.845 c -1.832,-1.801 -2.97,-4.306 -2.97,-7.078 0,-5.481 4.443,-9.924 9.923,-9.924 5.48,0 9.923,4.443 9.923,9.924 C 9.923,-4.443 5.48,0 0,0"
         style="fill:#ffffff;fill-opacity:1;fill-rule:nonzero;stroke:none"
         id="path210" /></g><g
       id="g212"
       transform="translate(179.4966,285.5957)"
       style="fill:#ffffff"><path
         d="m 0,0 0.289,0.395 c 0.399,0.544 0.28,1.316 -0.265,1.716 l -53.483,39.178 c 0.851,1.463 1.341,3.163 1.341,4.978 0,5.48 -4.443,9.923 -9.924,9.923 -5.48,0 -9.923,-4.443 -9.923,-9.923 0,-5.481 4.443,-9.923 9.923,-9.923 2.604,0 4.972,1.003 6.742,2.643 L -1.716,-0.265 C -1.171,-0.664 -0.399,-0.545 0,0"
         style="fill:#ffffff;fill-opacity:1;fill-rule:nonzero;stroke:none"
         id="path214" /></g><g
       id="g216"
       transform="translate(181.6157,267.5645)"
       style="fill:#ffffff"><path
         d="M 0,0 -0.403,0.278 C -0.959,0.661 -1.728,0.519 -2.11,-0.037 l -37.933,-55.067 c -1.406,0.763 -3.016,1.196 -4.728,1.196 -5.48,0 -9.923,-4.443 -9.923,-9.923 0,-5.481 4.443,-9.924 9.923,-9.924 5.481,0 9.924,4.443 9.924,9.924 0,2.707 -1.086,5.16 -2.844,6.951 L 0.314,-1.708 C 0.698,-1.151 0.556,-0.383 0,0"
         style="fill:#ffffff;fill-opacity:1;fill-rule:nonzero;stroke:none"
         id="path218" /></g><g
       id="g220"
       transform="translate(199.2573,278.02)"
       style="fill:#ffffff"><path
         d="m 0,0 c 0,-7.071 -5.732,-12.803 -12.804,-12.803 -7.071,0 -12.803,5.732 -12.803,12.803 0,7.071 5.732,12.804 12.803,12.804 C -5.732,12.804 0,7.071 0,0"
         style="fill:#ffffff;fill-opacity:1;fill-rule:nonzero;stroke:none"
         id="path222" /></g></g></svg>
