<?xml version="1.0" standalone="no"?>
<!DOCTYPE svg PUBLIC "-//W3C//DTD SVG 20010904//EN"
 "http://www.w3.org/TR/2001/REC-SVG-20010904/DTD/svg10.dtd">
<svg version="1.0" xmlns="http://www.w3.org/2000/svg"
 width="512.000000pt" height="512.000000pt" viewBox="0 0 512.000000 512.000000"
 preserveAspectRatio="xMidYMid meet">
<metadata>
Created by potrace 1.14, written by Peter Selinger 2001-2017
</metadata>
<g transform="translate(0.000000,512.000000) scale(0.100000,-0.100000)"
fill="#000000" stroke="none">
<path d="M254 4706 c-130 -60 -187 -161 -173 -307 8 -89 16 -106 76 -170 64
-69 119 -93 212 -93 66 0 85 5 143 33 l67 33 33 -23 c18 -12 47 -33 63 -46 29
-23 364 -268 435 -319 19 -14 128 -93 241 -177 114 -84 217 -159 229 -167 30
-21 432 -317 446 -328 5 -5 29 -22 52 -37 23 -15 42 -33 42 -39 0 -7 -14 -39
-31 -72 -29 -55 -31 -66 -32 -166 0 -83 3 -112 16 -132 9 -14 17 -32 17 -39 0
-8 27 -43 59 -79 l59 -64 -21 -35 c-12 -19 -24 -36 -27 -39 -7 -6 -28 -37
-135 -195 -107 -158 -129 -189 -135 -195 -3 -3 -32 -45 -65 -94 -33 -49 -99
-146 -147 -215 -48 -69 -116 -169 -152 -221 -35 -52 -96 -140 -135 -195 -38
-55 -118 -171 -176 -257 -59 -86 -113 -162 -121 -169 -11 -9 -25 -8 -63 5 -63
20 -105 20 -167 -1 -93 -31 -144 -75 -190 -163 -26 -50 -26 -190 0 -245 23
-51 89 -119 141 -147 59 -32 202 -32 262 0 99 52 156 136 169 245 7 56 -13
141 -42 177 -38 49 -37 53 29 150 34 51 69 103 77 115 8 13 42 62 75 110 33
47 65 94 70 103 6 8 28 41 50 73 22 31 46 65 53 75 7 11 28 42 48 69 20 28 57
82 82 120 26 39 49 72 52 75 5 5 18 23 146 212 41 59 89 129 107 155 93 134
155 224 214 312 88 131 91 134 128 126 77 -16 119 -16 181 1 l66 18 112 -115
c61 -63 289 -296 506 -517 217 -222 398 -410 403 -417 4 -9 -6 -39 -28 -79
-32 -59 -35 -73 -35 -144 0 -126 51 -213 160 -272 62 -33 204 -35 266 -2 56
29 129 112 148 169 35 101 12 220 -56 298 -74 84 -177 116 -293 91 l-70 -15
-50 52 c-27 29 -233 239 -456 467 -223 228 -428 440 -457 471 -48 52 -63 82
-44 91 10 4 72 84 72 93 0 4 6 21 14 38 8 18 16 39 19 48 7 20 49 29 136 29
36 0 156 7 266 15 110 8 308 21 440 30 132 9 337 22 455 30 407 27 397 27 418
-2 77 -112 161 -163 270 -162 80 0 135 20 196 71 73 61 91 106 91 223 0 111
-15 153 -75 212 -60 58 -122 83 -210 83 -151 0 -260 -86 -291 -228 -7 -32 -16
-62 -21 -69 -5 -6 -56 -14 -126 -17 -64 -3 -216 -13 -337 -21 -121 -8 -328
-22 -460 -30 -132 -9 -334 -23 -450 -31 -115 -9 -230 -14 -255 -12 -44 3 -45
4 -50 43 -8 65 -59 153 -117 203 -57 49 -63 68 -39 124 8 18 22 60 31 93 10
33 23 76 30 95 12 34 34 103 105 330 47 149 66 190 90 190 40 0 128 29 176 58
34 21 60 49 84 88 34 56 35 62 35 154 0 107 -13 146 -70 209 -105 115 -313
120 -424 10 -63 -64 -86 -120 -86 -214 0 -67 5 -89 27 -136 25 -51 67 -97 112
-124 21 -12 22 -38 6 -85 -30 -82 -38 -108 -55 -165 -22 -75 -74 -239 -90
-285 -7 -19 -21 -62 -30 -95 -10 -33 -26 -80 -36 -105 l-18 -45 -78 -1 c-79
-1 -163 -20 -185 -42 -7 -7 -26 -12 -44 -12 -30 0 -76 28 -204 125 -19 14
-120 89 -225 165 -104 77 -195 143 -201 148 -6 5 -42 31 -80 58 -38 26 -148
107 -245 179 -98 71 -274 201 -392 288 -119 87 -218 164 -220 171 -3 7 2 39
10 72 20 73 6 174 -31 233 -77 122 -244 175 -372 117z"/>
</g>
</svg>
